<svg width="32" height="32" viewBox="0 0 32 32" fill="none" xmlns="http://www.w3.org/2000/svg">
    <path d="M25.8163 29.6339H25.2534C25.2534 29.6279 25.2506 29.6219 25.2495 29.6163L25.2341 29.5475C25.2242 29.5022 25.2135 29.4573 25.2025 29.4127C25.1978 29.3918 25.1926 29.3708 25.1875 29.3499C25.1729 29.2911 25.1575 29.2323 25.1417 29.1736L25.137 29.1568C25.1196 29.0931 25.1014 29.0298 25.0825 28.9666L25.0635 28.9056C25.0505 28.8622 25.0367 28.8192 25.0241 28.7761C25.0166 28.7526 25.0087 28.7294 25.0012 28.7062C24.9874 28.6646 24.9731 28.6231 24.9585 28.5819C24.951 28.5602 24.9431 28.5381 24.9356 28.5168C24.9172 28.4652 24.8983 28.4139 24.8788 28.363C24.8745 28.3521 24.8709 28.3417 24.8666 28.3308C24.8437 28.2709 24.8196 28.2114 24.7951 28.1519C24.7864 28.1302 24.7773 28.1089 24.7683 28.0875C24.7517 28.0501 24.7351 28.009 24.7181 27.97L24.6862 27.8978C24.6696 27.8604 24.6526 27.8229 24.6352 27.7855C24.6246 27.7623 24.6135 27.7387 24.6025 27.7155C24.5823 27.6725 24.563 27.6298 24.5405 27.5875C24.5322 27.5715 24.5247 27.555 24.5164 27.5385C24.4884 27.4828 24.4596 27.4262 24.4304 27.3724L24.3909 27.3024L24.3352 27.201L24.2918 27.1261C24.2736 27.0947 24.2555 27.0632 24.2369 27.0318C24.2223 27.0063 24.2073 26.9809 24.1923 26.9569C24.1718 26.9229 24.1529 26.8896 24.1304 26.8559L24.0735 26.7646C24.0467 26.7227 24.0198 26.6804 23.9922 26.6388C23.9748 26.6126 23.9575 26.5868 23.9397 26.561C23.9219 26.5352 23.9026 26.5056 23.8836 26.4783C23.8647 26.451 23.8442 26.4237 23.8268 26.3967C23.8094 26.3698 23.7905 26.3454 23.7719 26.3219C23.7534 26.2983 23.7324 26.2668 23.7123 26.2395L23.6567 26.1647C23.6172 26.1149 23.5809 26.0651 23.5422 26.015L23.4881 25.9465C23.4652 25.9177 23.4415 25.8892 23.4182 25.8608L23.3661 25.7979C23.342 25.7691 23.3176 25.7407 23.2931 25.7118L23.2418 25.6527L23.1652 25.5659L23.1198 25.5157C23.0254 25.4121 22.9287 25.3099 22.8297 25.2104L22.7862 25.1666L22.6954 25.0779L22.6508 25.0352C22.6192 25.0049 22.5877 24.975 22.5557 24.9454L22.5229 24.9155C22.4112 24.8125 22.2963 24.7122 22.1795 24.6161L22.1475 24.5895C22.1115 24.5595 22.0752 24.53 22.0386 24.5008L22.0023 24.4716C21.9628 24.4417 21.9269 24.4121 21.8886 24.3825L21.8692 24.3679C21.7401 24.2691 21.6079 24.173 21.4745 24.0805L21.4559 24.0674C21.4137 24.0386 21.3714 24.0102 21.3288 23.9821L21.3008 23.9637C21.2574 23.9349 21.2135 23.9069 21.1697 23.8788L21.1622 23.8743C21.017 23.7822 20.8689 23.694 20.7181 23.6097L20.7122 23.606C20.6645 23.5794 20.6167 23.5536 20.5689 23.5278L20.548 23.5165C20.2938 23.3806 20.0327 23.2558 19.7648 23.1423L19.7482 23.1352C19.6776 23.1052 19.6065 23.0764 19.5347 23.048H20.9475C21.1776 23.048 21.3643 22.7969 21.3643 22.4866C21.3643 22.1764 21.1776 21.9252 20.9475 21.9252H20.5267C20.5527 21.8624 20.5816 21.7913 20.6127 21.7112C21.0106 21.4762 21.7109 20.9754 22.4057 20.0555L22.4112 20.0484C22.4639 19.9796 22.5156 19.9083 22.5664 19.8347L22.5766 19.8201C22.6271 19.7479 22.6777 19.6734 22.7274 19.5956L22.7408 19.575C22.7645 19.5376 22.7882 19.5001 22.8119 19.4627C22.8119 19.4627 22.8119 19.4597 22.8147 19.4579C22.8391 19.4204 22.8632 19.3793 22.8873 19.3392L22.9027 19.3134C22.9232 19.279 22.9441 19.2438 22.9643 19.2082C22.9682 19.2019 22.9722 19.1955 22.9757 19.1888C22.999 19.1484 23.0223 19.1072 23.0452 19.0656L23.061 19.0368C23.0799 19.0024 23.0985 18.9676 23.117 18.9324C23.1226 18.9227 23.1281 18.9126 23.1332 18.9025C23.1553 18.8602 23.1774 18.8175 23.1995 18.7741L23.2149 18.7438C23.2323 18.7086 23.2501 18.6727 23.2674 18.6368L23.2864 18.5993C23.3077 18.5552 23.3286 18.5103 23.3495 18.465L23.3626 18.4362C23.3799 18.3987 23.3969 18.3613 23.4139 18.3239L23.434 18.279C23.4537 18.2337 23.4735 18.188 23.4924 18.142C23.496 18.1338 23.4995 18.1252 23.5027 18.1169C23.5205 18.0747 23.5378 18.0316 23.5552 17.9882L23.5749 17.9388C23.5911 17.8976 23.6073 17.8561 23.6231 17.8146L23.6349 17.7831C23.6535 17.7337 23.6716 17.6832 23.6898 17.6334L23.7088 17.5803C23.723 17.5406 23.7368 17.5002 23.7506 17.4598C23.7557 17.4448 23.7609 17.4298 23.7656 17.4149C23.783 17.3632 23.8003 17.3104 23.8173 17.2577C23.8228 17.2393 23.8288 17.2203 23.8343 17.203L23.8738 17.0799C23.8789 17.0619 23.8844 17.0425 23.8896 17.0264C23.9057 16.9721 23.9219 16.9167 23.9373 16.861C23.9424 16.8434 23.9472 16.8254 23.9519 16.8075C23.9638 16.7644 23.9756 16.7214 23.9871 16.6776C23.9922 16.6578 23.9973 16.6379 24.0028 16.6181C24.0175 16.5605 24.0321 16.5025 24.0463 16.4437L24.0581 16.3947C24.0692 16.3479 24.0802 16.3007 24.0909 16.2532L24.1051 16.1896C24.1185 16.1286 24.1319 16.0676 24.1446 16.0055C24.1473 15.9935 24.1497 15.9811 24.1521 15.968C24.1631 15.9145 24.1738 15.8603 24.184 15.806C24.1884 15.7839 24.1923 15.7618 24.1967 15.7397C24.2069 15.684 24.2168 15.6275 24.2267 15.5717C24.2286 15.5597 24.231 15.5481 24.233 15.5365C24.244 15.4707 24.2548 15.4043 24.2654 15.3374C24.2689 15.315 24.2725 15.2925 24.2756 15.2697C24.2839 15.2154 24.2918 15.1608 24.2997 15.1054L24.3068 15.0545C24.3163 14.9856 24.3254 14.9164 24.334 14.846C24.3368 14.824 24.3392 14.8019 24.3419 14.7794C24.3488 14.7235 24.3551 14.6674 24.3609 14.611C24.3633 14.5908 24.3656 14.571 24.3676 14.5508C24.3752 14.4784 24.3823 14.4054 24.3889 14.3318C24.3889 14.3113 24.3925 14.2907 24.394 14.2697C24.3992 14.2106 24.4043 14.1511 24.4086 14.0912C24.4086 14.0691 24.4122 14.047 24.4138 14.025C24.4193 13.9486 24.4244 13.8718 24.4292 13.7944C24.4292 13.7768 24.4292 13.757 24.4319 13.7413C24.4355 13.6769 24.439 13.6122 24.4418 13.5471C24.4418 13.5235 24.4418 13.4999 24.445 13.4763C24.4481 13.3959 24.4513 13.315 24.4537 13.2331C24.4537 13.2218 24.4537 13.2102 24.4537 13.1986C24.4558 13.1258 24.4573 13.0522 24.4584 12.9778C24.4584 12.9535 24.4584 12.9292 24.4584 12.9048C24.4584 12.825 24.4584 12.7447 24.4584 12.6638V12.6451C24.4584 12.559 24.4584 12.4718 24.4584 12.3832V12.3083C24.4584 12.2335 24.4552 12.1549 24.4533 12.077V12.0347C24.4505 11.9449 24.4469 11.854 24.4434 11.7627C24.4434 11.7391 24.441 11.7151 24.4402 11.6915C24.4368 11.6147 24.4329 11.5374 24.4284 11.4595C24.4284 11.4404 24.4284 11.4221 24.4252 11.4015C24.4197 11.3079 24.4136 11.2136 24.4071 11.1186L24.4023 11.0523C24.3964 10.973 24.3905 10.8933 24.3838 10.8128C24.3838 10.7896 24.3802 10.7664 24.3783 10.7432C24.37 10.6459 24.3609 10.5475 24.3514 10.4487C24.3514 10.43 24.3475 10.4113 24.3459 10.3922C24.3376 10.308 24.3285 10.223 24.3194 10.1373C24.3167 10.1115 24.3139 10.086 24.3108 10.0602C24.2997 9.95843 24.2879 9.85626 24.2752 9.75259C24.2752 9.73987 24.2717 9.72714 24.2701 9.71517C24.2588 9.62236 24.2468 9.52905 24.2342 9.43524C24.2302 9.40754 24.2267 9.37985 24.2227 9.35216C24.208 9.24587 24.1929 9.13871 24.1773 9.03068C22.5983 -1.62554 11.4088 0.103841 11.4088 0.103841L11.7672 2.39347L5 9.17102L5.29567 11.7881L7.85917 13.2851C7.97345 13.0097 8.12017 12.7474 8.29655 12.5033C9.95055 10.6946 13.1595 9.27468 14.0781 8.98015C14.262 8.9214 14.3666 8.89183 14.3666 8.89183C9.97266 14.2832 10.4724 20.4597 10.6682 21.932C10.4645 21.9694 10.307 22.2026 10.307 22.487C10.307 22.7969 10.4937 23.0484 10.7239 23.0484H12.1367C9.78699 23.9808 7.92185 25.7567 6.94848 27.9884C6.94734 27.9914 6.94602 27.9944 6.94454 27.9973C6.87269 28.163 6.80585 28.331 6.74401 28.5015V28.5067C6.72743 28.5531 6.71124 28.5995 6.69545 28.6463C6.68953 28.6631 6.68361 28.68 6.67808 28.6972C6.66387 28.7391 6.65071 28.7814 6.63861 28.8241C6.6315 28.8458 6.62479 28.8678 6.61808 28.8895C6.60545 28.9296 6.59321 28.97 6.58137 29.0104L6.56005 29.0853C6.549 29.1227 6.53795 29.1627 6.52768 29.2017C6.52018 29.2294 6.51308 29.2567 6.50597 29.2844C6.4965 29.3218 6.48663 29.3592 6.47755 29.3966C6.46847 29.4341 6.45978 29.4715 6.4511 29.5112C6.44242 29.5508 6.43136 29.5972 6.42189 29.6407H5.85858C5.75026 29.6384 5.64255 29.6567 5.54178 29.6944C5.44101 29.7321 5.3492 29.7886 5.27175 29.8604C5.19429 29.9322 5.13275 30.018 5.09074 30.1127C5.04872 30.2074 5.02708 30.3091 5.02708 30.4118C5.02708 30.5145 5.04872 30.6162 5.09074 30.7109C5.13275 30.8056 5.19429 30.8913 5.27175 30.9632C5.3492 31.035 5.44101 31.0914 5.54178 31.1292C5.64255 31.1669 5.75026 31.1852 5.85858 31.1829H25.8234C25.9318 31.1852 26.0395 31.1669 26.1402 31.1292C26.241 31.0914 26.3328 31.035 26.4103 30.9632C26.4877 30.8913 26.5493 30.8056 26.5913 30.7109C26.6333 30.6162 26.6549 30.5145 26.6549 30.4118C26.6549 30.3091 26.6333 30.2074 26.5913 30.1127C26.5493 30.018 26.4877 29.9322 26.4103 29.8604C26.3328 29.7886 26.241 29.7321 26.1402 29.6944C26.0395 29.6567 25.9318 29.6384 25.8234 29.6407L25.8163 29.6339Z"
          fill="#595653"/>
</svg>
